<mxfile host="app.diagrams.net" agent="Mozilla/5.0 (X11; Ubuntu; Linux x86_64; rv:139.0) Gecko/20100101 Firefox/139.0" version="27.1.4">
  <diagram name="Page-1" id="9y52ZVV8b3Mn940VNngh">
    <mxGraphModel grid="1" page="1" gridSize="10" guides="1" tooltips="1" connect="1" arrows="1" fold="1" pageScale="1" pageWidth="850" pageHeight="1100" math="0" shadow="0">
      <root>
        <mxCell id="0" />
        <mxCell id="1" parent="0" />
        <mxCell id="wO4DtdUCnCSsirRYOm7r-1" value="&lt;font style=&quot;font-size: 18px;&quot;&gt;Member&lt;/font&gt;" style="shape=umlActor;verticalLabelPosition=bottom;verticalAlign=top;html=1;outlineConnect=0;" vertex="1" parent="1">
          <mxGeometry x="190" y="93" width="40" height="90" as="geometry" />
        </mxCell>
        <mxCell id="wO4DtdUCnCSsirRYOm7r-3" value="&lt;font style=&quot;font-size: 18px;&quot;&gt;Librarian&lt;/font&gt;" style="shape=umlActor;verticalLabelPosition=bottom;verticalAlign=top;html=1;outlineConnect=0;" vertex="1" parent="1">
          <mxGeometry x="180" y="370" width="40" height="90" as="geometry" />
        </mxCell>
        <mxCell id="wO4DtdUCnCSsirRYOm7r-4" value="&lt;font style=&quot;font-size: 18px;&quot;&gt;Admin&lt;/font&gt;" style="shape=umlActor;verticalLabelPosition=bottom;verticalAlign=top;html=1;outlineConnect=0;" vertex="1" parent="1">
          <mxGeometry x="190" y="630" width="40" height="90" as="geometry" />
        </mxCell>
        <mxCell id="wO4DtdUCnCSsirRYOm7r-12" value="" style="endArrow=classic;html=1;rounded=0;" edge="1" parent="1">
          <mxGeometry width="50" height="50" relative="1" as="geometry">
            <mxPoint x="240" y="120" as="sourcePoint" />
            <mxPoint x="350" y="90" as="targetPoint" />
          </mxGeometry>
        </mxCell>
        <mxCell id="wO4DtdUCnCSsirRYOm7r-13" value="" style="endArrow=classic;html=1;rounded=0;" edge="1" parent="1">
          <mxGeometry width="50" height="50" relative="1" as="geometry">
            <mxPoint x="240" y="120" as="sourcePoint" />
            <mxPoint x="350" y="120" as="targetPoint" />
          </mxGeometry>
        </mxCell>
        <mxCell id="wO4DtdUCnCSsirRYOm7r-15" value="" style="endArrow=classic;html=1;rounded=0;" edge="1" parent="1">
          <mxGeometry width="50" height="50" relative="1" as="geometry">
            <mxPoint x="240" y="120" as="sourcePoint" />
            <mxPoint x="350" y="160" as="targetPoint" />
          </mxGeometry>
        </mxCell>
        <mxCell id="wO4DtdUCnCSsirRYOm7r-16" value="&lt;font style=&quot;font-size: 18px;&quot;&gt;Search books&lt;/font&gt;" style="text;html=1;align=center;verticalAlign=middle;resizable=0;points=[];autosize=1;strokeColor=none;fillColor=none;" vertex="1" parent="1">
          <mxGeometry x="345" y="63" width="130" height="40" as="geometry" />
        </mxCell>
        <mxCell id="wO4DtdUCnCSsirRYOm7r-17" value="&lt;font style=&quot;font-size: 18px;&quot;&gt;&amp;nbsp;Borrow&amp;nbsp;&lt;b&gt;books&lt;/b&gt;&lt;/font&gt;" style="text;html=1;align=center;verticalAlign=middle;resizable=0;points=[];autosize=1;strokeColor=none;fillColor=none;" vertex="1" parent="1">
          <mxGeometry x="340" y="103" width="140" height="40" as="geometry" />
        </mxCell>
        <mxCell id="wO4DtdUCnCSsirRYOm7r-18" value="&lt;font style=&quot;font-size: 18px;&quot;&gt;&amp;nbsp; Return books&lt;/font&gt;" style="text;html=1;align=center;verticalAlign=middle;resizable=0;points=[];autosize=1;strokeColor=none;fillColor=none;" vertex="1" parent="1">
          <mxGeometry x="335" y="143" width="140" height="40" as="geometry" />
        </mxCell>
        <mxCell id="wO4DtdUCnCSsirRYOm7r-21" value="" style="endArrow=classic;html=1;rounded=0;entryX=0.014;entryY=0.475;entryDx=0;entryDy=0;entryPerimeter=0;" edge="1" parent="1" target="wO4DtdUCnCSsirRYOm7r-22">
          <mxGeometry width="50" height="50" relative="1" as="geometry">
            <mxPoint x="245" y="123" as="sourcePoint" />
            <mxPoint x="340" y="200" as="targetPoint" />
          </mxGeometry>
        </mxCell>
        <mxCell id="wO4DtdUCnCSsirRYOm7r-22" value="&lt;font style=&quot;font-size: 18px;&quot;&gt;ViewBorrowHistory&lt;/font&gt;" style="text;html=1;align=center;verticalAlign=middle;resizable=0;points=[];autosize=1;strokeColor=none;fillColor=none;" vertex="1" parent="1">
          <mxGeometry x="345" y="180" width="180" height="40" as="geometry" />
        </mxCell>
        <mxCell id="wO4DtdUCnCSsirRYOm7r-23" value="" style="endArrow=classic;html=1;rounded=0;" edge="1" parent="1">
          <mxGeometry width="50" height="50" relative="1" as="geometry">
            <mxPoint x="240" y="118" as="sourcePoint" />
            <mxPoint x="350" y="240" as="targetPoint" />
          </mxGeometry>
        </mxCell>
        <mxCell id="wO4DtdUCnCSsirRYOm7r-25" value="&lt;font style=&quot;font-size: 18px;&quot;&gt;PayFine&lt;/font&gt;" style="text;whiteSpace=wrap;html=1;" vertex="1" parent="1">
          <mxGeometry x="360" y="220" width="190" height="50" as="geometry" />
        </mxCell>
        <mxCell id="wO4DtdUCnCSsirRYOm7r-26" value="" style="endArrow=classic;html=1;rounded=0;" edge="1" parent="1">
          <mxGeometry width="50" height="50" relative="1" as="geometry">
            <mxPoint x="240" y="120" as="sourcePoint" />
            <mxPoint x="340" y="280" as="targetPoint" />
          </mxGeometry>
        </mxCell>
        <mxCell id="wO4DtdUCnCSsirRYOm7r-27" value="&lt;font style=&quot;font-size: 18px;&quot;&gt;RenewBook&lt;/font&gt;" style="text;whiteSpace=wrap;html=1;" vertex="1" parent="1">
          <mxGeometry x="355" y="260" width="175" height="50" as="geometry" />
        </mxCell>
        <mxCell id="wO4DtdUCnCSsirRYOm7r-28" value="" style="endArrow=classic;html=1;rounded=0;" edge="1" parent="1">
          <mxGeometry width="50" height="50" relative="1" as="geometry">
            <mxPoint x="235" y="390" as="sourcePoint" />
            <mxPoint x="345" y="360" as="targetPoint" />
          </mxGeometry>
        </mxCell>
        <mxCell id="wO4DtdUCnCSsirRYOm7r-29" value="&lt;font style=&quot;font-size: 18px;&quot;&gt;ManageBooks&lt;/font&gt;" style="text;whiteSpace=wrap;html=1;" vertex="1" parent="1">
          <mxGeometry x="355" y="340" width="175" height="50" as="geometry" />
        </mxCell>
        <mxCell id="wO4DtdUCnCSsirRYOm7r-30" value="" style="endArrow=classic;html=1;rounded=0;" edge="1" parent="1">
          <mxGeometry width="50" height="50" relative="1" as="geometry">
            <mxPoint x="235" y="390" as="sourcePoint" />
            <mxPoint x="345" y="390" as="targetPoint" />
          </mxGeometry>
        </mxCell>
        <mxCell id="wO4DtdUCnCSsirRYOm7r-31" value="&lt;font style=&quot;font-size: 18px;&quot;&gt;ManageMembers&lt;/font&gt;" style="text;whiteSpace=wrap;html=1;" vertex="1" parent="1">
          <mxGeometry x="355" y="370" width="150" height="50" as="geometry" />
        </mxCell>
        <mxCell id="wO4DtdUCnCSsirRYOm7r-32" value="" style="endArrow=classic;html=1;rounded=0;" edge="1" parent="1">
          <mxGeometry width="50" height="50" relative="1" as="geometry">
            <mxPoint x="235" y="390" as="sourcePoint" />
            <mxPoint x="345" y="430" as="targetPoint" />
          </mxGeometry>
        </mxCell>
        <mxCell id="wO4DtdUCnCSsirRYOm7r-33" value="&lt;font style=&quot;font-size: 18px;&quot;&gt;ProcessBorrow&lt;/font&gt;" style="text;whiteSpace=wrap;html=1;" vertex="1" parent="1">
          <mxGeometry x="355" y="410" width="150" height="50" as="geometry" />
        </mxCell>
        <mxCell id="wO4DtdUCnCSsirRYOm7r-34" value="" style="endArrow=classic;html=1;rounded=0;entryX=0.014;entryY=0.475;entryDx=0;entryDy=0;entryPerimeter=0;" edge="1" parent="1">
          <mxGeometry width="50" height="50" relative="1" as="geometry">
            <mxPoint x="240" y="390" as="sourcePoint" />
            <mxPoint x="343" y="466" as="targetPoint" />
          </mxGeometry>
        </mxCell>
        <mxCell id="wO4DtdUCnCSsirRYOm7r-35" value="&lt;font style=&quot;font-size: 18px;&quot;&gt;ProcessReturn&amp;nbsp;&lt;/font&gt;" style="text;whiteSpace=wrap;html=1;" vertex="1" parent="1">
          <mxGeometry x="360" y="450" width="150" height="50" as="geometry" />
        </mxCell>
        <mxCell id="wO4DtdUCnCSsirRYOm7r-36" value="" style="endArrow=classic;html=1;rounded=0;" edge="1" parent="1">
          <mxGeometry width="50" height="50" relative="1" as="geometry">
            <mxPoint x="235" y="390" as="sourcePoint" />
            <mxPoint x="345" y="512" as="targetPoint" />
          </mxGeometry>
        </mxCell>
        <mxCell id="wO4DtdUCnCSsirRYOm7r-37" value="&lt;font style=&quot;font-size: 18px;&quot;&gt;SearchBooks&lt;/font&gt;" style="text;whiteSpace=wrap;html=1;" vertex="1" parent="1">
          <mxGeometry x="360" y="490" width="150" height="50" as="geometry" />
        </mxCell>
        <mxCell id="wO4DtdUCnCSsirRYOm7r-39" value="" style="endArrow=classic;html=1;rounded=0;" edge="1" parent="1">
          <mxGeometry width="50" height="50" relative="1" as="geometry">
            <mxPoint x="235" y="660" as="sourcePoint" />
            <mxPoint x="345" y="630" as="targetPoint" />
          </mxGeometry>
        </mxCell>
        <mxCell id="wO4DtdUCnCSsirRYOm7r-40" value="" style="endArrow=classic;html=1;rounded=0;" edge="1" parent="1">
          <mxGeometry width="50" height="50" relative="1" as="geometry">
            <mxPoint x="235" y="660" as="sourcePoint" />
            <mxPoint x="345" y="660" as="targetPoint" />
          </mxGeometry>
        </mxCell>
        <mxCell id="wO4DtdUCnCSsirRYOm7r-41" value="" style="endArrow=classic;html=1;rounded=0;" edge="1" parent="1">
          <mxGeometry width="50" height="50" relative="1" as="geometry">
            <mxPoint x="235" y="660" as="sourcePoint" />
            <mxPoint x="345" y="700" as="targetPoint" />
          </mxGeometry>
        </mxCell>
        <mxCell id="wO4DtdUCnCSsirRYOm7r-42" value="" style="endArrow=classic;html=1;rounded=0;entryX=0.014;entryY=0.475;entryDx=0;entryDy=0;entryPerimeter=0;" edge="1" parent="1">
          <mxGeometry width="50" height="50" relative="1" as="geometry">
            <mxPoint x="240" y="660" as="sourcePoint" />
            <mxPoint x="343" y="736" as="targetPoint" />
          </mxGeometry>
        </mxCell>
        <mxCell id="wO4DtdUCnCSsirRYOm7r-44" value="&lt;font style=&quot;font-size: 18px;&quot;&gt;ManageLibrarians&lt;/font&gt;" style="text;whiteSpace=wrap;html=1;" vertex="1" parent="1">
          <mxGeometry x="367.5" y="610" width="150" height="50" as="geometry" />
        </mxCell>
        <mxCell id="wO4DtdUCnCSsirRYOm7r-45" value="&lt;font style=&quot;font-size: 18px;&quot;&gt;SystemConfig&lt;/font&gt;" style="text;whiteSpace=wrap;html=1;" vertex="1" parent="1">
          <mxGeometry x="367.5" y="640" width="150" height="50" as="geometry" />
        </mxCell>
        <mxCell id="wO4DtdUCnCSsirRYOm7r-46" value="&lt;font style=&quot;font-size: 18px;&quot;&gt;BackupData&lt;/font&gt;" style="text;whiteSpace=wrap;html=1;" vertex="1" parent="1">
          <mxGeometry x="367.5" y="680" width="150" height="50" as="geometry" />
        </mxCell>
        <mxCell id="wO4DtdUCnCSsirRYOm7r-47" value="&lt;font style=&quot;font-size: 18px;&quot;&gt;Generate Reports&lt;/font&gt;" style="text;whiteSpace=wrap;html=1;" vertex="1" parent="1">
          <mxGeometry x="367.5" y="720" width="150" height="50" as="geometry" />
        </mxCell>
      </root>
    </mxGraphModel>
  </diagram>
</mxfile>
